<svg id="Layer_1" data-name="Layer 1" xmlns="http://www.w3.org/2000/svg" viewBox="0 0 39.8459 39.8459"><defs><style>.cls-1{fill:#30ad37;}.cls-2{fill:#fff;}</style></defs><title>icons</title><path class="cls-1" d="M19.8942,38.133c-3.3715-.0015-6.7431.0172-10.1144-.0061a7.7836,7.7836,0,0,1-7.94-7.7715q-.1016-10.3381.0068-20.6779A7.7858,7.7858,0,0,1,9.631,1.965q10.2262-.0743,20.4534-.0041a7.89,7.89,0,0,1,7.9181,7.9673q.1127,10.1693.0013,20.3408a7.8637,7.8637,0,0,1-7.9952,7.8637c-1.6855.018-3.3714.002-5.0572.0018S21.58,38.1345,19.8942,38.133Z"/><path class="cls-2" d="M7.86,23.3952c.9513-4.08,3.6409-6.7795,7.08-8.8665a5.5048,5.5048,0,0,1,2.793-.877,1.7488,1.7488,0,0,1,1.9485,2.0612,9.7885,9.7885,0,0,1-.1983,1.1658c-.0843.4277.0177.5284.4365.4006.7871-.24,1.5619-.5353,2.3634-.7079a5.3134,5.3134,0,0,1,1.6589-.0646,1.8344,1.8344,0,0,1,1.5876,2.518c-.2528,1.0525-.2528,1.0525.7272,1.4759a3.3716,3.3716,0,0,1,1.79,5.0776,8.8328,8.8328,0,0,1-4.5114,3.9187,13.6308,13.6308,0,0,1-11.77-.2134A6.4671,6.4671,0,0,1,7.86,24.5822Zm8.9239,5.5973c.3993-.0307.8495-.0455,1.2942-.1029a8.6619,8.6619,0,0,0,5.1667-2.3013,3.5351,3.5351,0,0,0-.4793-5.7972,6.3573,6.3573,0,0,0-1.1236-.6287A9.1877,9.1877,0,0,0,16.63,19.526a8.3691,8.3691,0,0,0-5.4013,2.6151,3.4547,3.4547,0,0,0,.4222,5.2207A8.228,8.228,0,0,0,16.7837,28.9925Z"/><path class="cls-2" d="M32.1388,17.2445c-.2245.4311-.5315.7524-1.0637.6109-.5226-.139-.6409-.5668-.6637-1.05a5.5789,5.5789,0,0,0-5.4588-5.3836c-.6056-.0175-.9751-.3336-.9822-.84-.0072-.5151.4131-.8659,1.0269-.857a7.3178,7.3178,0,0,1,7.0431,6.2446,4.0257,4.0257,0,0,0,.0983.4121Z"/><path class="cls-2" d="M28.7513,17.085a.8074.8074,0,0,1-.6683.812.8631.8631,0,0,1-1.0044-.6067,6.9067,6.9067,0,0,0-.6293-1.3462,3.0589,3.0589,0,0,0-1.8645-1.1808.8322.8322,0,0,1,.2614-1.6411A4.8828,4.8828,0,0,1,28.7513,17.085Z"/><path class="cls-2" d="M16.5712,26.8779c-1.9054-.02-2.9882-.7839-3.1144-1.9832a2.599,2.599,0,0,1,.33-1.47,3.2514,3.2514,0,0,1,4.4084-.9573,2.1478,2.1478,0,0,1,.4457,3.2749A3.0543,3.0543,0,0,1,16.5712,26.8779Z"/></svg>