<svg id="Layer_1" data-name="Layer 1" xmlns="http://www.w3.org/2000/svg" viewBox="0 0 35.5 35.5"><defs><style>.cls-1,.cls-2{fill:#3bac37;}.cls-2{stroke:#3bac37;stroke-miterlimit:10;stroke-width:0.5px;}</style></defs><title>icons</title><path class="cls-1" d="M17.75,34.2215a16.5,16.5,0,1,1,16.5-16.5A16.5184,16.5184,0,0,1,17.75,34.2215Zm0-30.0882A13.5882,13.5882,0,1,0,31.3382,17.7215,13.6035,13.6035,0,0,0,17.75,4.1333Z"/><path class="cls-2" d="M17.998,27.708a1.23,1.23,0,0,1-.8067-.2083.7466.7466,0,0,1-.2408-.6014V24.951a11.72,11.72,0,0,1-1.7573-.23,12.3574,12.3574,0,0,1-1.6439-.4476,3.4687,3.4687,0,0,1-1.5871-1.018.647.647,0,0,1,0-.908.8942.8942,0,0,1,.7223-.3055,2.28,2.28,0,0,1,.8925.2617,13.5043,13.5043,0,0,0,1.6024.6783,7.3709,7.3709,0,0,0,1.7712.3942V17.12a14.9562,14.9562,0,0,1-2.0272-.7766,5.8474,5.8474,0,0,1-1.36-.8759,2.8694,2.8694,0,0,1-.7652-1.0607,3.4481,3.4481,0,0,1-.2408-1.3128,2.88,2.88,0,0,1,.3542-1.4111,3.7116,3.7116,0,0,1,.9631-1.1259,5.1224,5.1224,0,0,1,1.4031-.7766,7.3317,7.3317,0,0,1,1.6729-.4048V8.5874a1.0248,1.0248,0,0,1,.2684-.6666,1.2107,1.2107,0,0,1,.779-.1859q1.0482,0,1.0489.8086v.8321c.1882.0139.3681.0363.5383.0652s.34.0588.5106.0876a8.78,8.78,0,0,1,1.36.3942,4.0211,4.0211,0,0,1,1.006.5352,1.5194,1.5194,0,0,1,.5106.6238.63.63,0,0,1-.1.6345.9393.9393,0,0,1-.7652.3066,1.8578,1.8578,0,0,1-.9354-.2414,9.589,9.589,0,0,0-.9921-.4593,8.2641,8.2641,0,0,0-1.1333-.3717v5.12A8.6081,8.6081,0,0,1,22.66,17.9074a3.484,3.484,0,0,1,1.0627,2.538,3.5965,3.5965,0,0,1-.34,1.5532,4.1035,4.1035,0,0,1-.9631,1.29,5.7441,5.7441,0,0,1-1.4737.9624,6.85,6.85,0,0,1-1.8985.5469v2.0563a.84.84,0,0,1-.2408.6014A1.0856,1.0856,0,0,1,17.998,27.708ZM14.8251,13.0941a1.8145,1.8145,0,0,0,.4815,1.2145,4.212,4.212,0,0,0,1.6439,1.0169V10.95a2.8216,2.8216,0,0,0-.8081.2521,2.6975,2.6975,0,0,0-.6808.47,2.1824,2.1824,0,0,0-.4677.6452A1.7972,1.7972,0,0,0,14.8251,13.0941Zm6.6585,7.4378a2.2936,2.2936,0,0,0-.6365-1.4869,4.5021,4.5021,0,0,0-1.8-1.2039v5.36a4.245,4.245,0,0,0,1.8-1.1045A2.5712,2.5712,0,0,0,21.4837,20.5319Z"/></svg>