<svg id="Layer_1" data-name="Layer 1" xmlns="http://www.w3.org/2000/svg" viewBox="0 0 31.8764 31.8764"><defs><style>.cls-1{fill:#41a839;}</style></defs><title>icons</title><path class="cls-1" d="M21.0928,23.5472a9.2423,9.2423,0,0,1-5.441,1.6756c-.2566-.0042-.509-.0227-.7614-.0413-.1015-.01-.2049-.0272-.3062-.0414-.2006-.0248-.393-.05-.5875-.0892-.118-.0206-.2378-.0538-.3517-.0807-.19-.0413-.3766-.0827-.5628-.1365-.0868-.033-.1716-.06-.2586-.0952-.2153-.0661-.426-.1428-.631-.2274-.0455-.0208-.0909-.0373-.1386-.0559q-.3582-.1624-.7076-.3435c-.0082-.006-.0207-.01-.0287-.0164a9.2341,9.2341,0,0,1-2.1145-1.5869.4223.4223,0,0,0-.031-.0331,7.813,7.813,0,0,1-.5545-.61c-.0352-.0434-.07-.0868-.1075-.1407A9.2484,9.2484,0,0,1,6.4768,15.94H8.9241L5.008,10.069l-3.91,5.8671H3.541a12.159,12.159,0,0,0,2.166,6.9263.8928.8928,0,0,0,.0455.0849c.1407.2047.298.3889.4491.577.0579.0682.1076.1386.17.2172.2213.2669.4612.5213.7033.7715.0248.0248.0453.0457.0663.0683A12.1181,12.1181,0,0,0,9.89,26.6441l.08.0434q.4349.2344.8877.4323c.0765.0332.1488.0663.2233.0974.2607.11.5256.2026.7923.2937.1263.0434.25.0848.3786.1261.2338.0661.4716.1263.7117.1823.1613.0371.3144.0786.48.1075a1.27,1.27,0,0,0,.1963.0434c.23.0414.4574.062.6808.0889.0827.0145.1655.0291.246.0374.4075.0392.8152.0642,1.2207.0642a12.1382,12.1382,0,0,0,6.9884-2.2178,1.4642,1.4642,0,1,0-1.6838-2.3958"/><path class="cls-1" d="M27.9819,15.9361a12.1241,12.1241,0,0,0-2.15-6.9079c-.0207-.033-.0332-.0682-.05-.0971q-.259-.3549-.54-.6932a.8682.8682,0,0,1-.06-.0827,12.2315,12.2315,0,0,0-4.5638-3.4258c-.0516-.0205-.095-.0434-.1468-.0641-.2835-.1159-.5709-.2173-.8648-.3166-.0994-.0332-.2069-.07-.31-.1013-.2565-.0808-.5087-.1447-.7674-.2049-.1428-.0309-.29-.0682-.4325-.0973-.0723-.0121-.1364-.033-.2129-.0476-.1924-.031-.3828-.05-.5772-.0723-.1345-.0166-.2628-.0373-.3993-.0518-.3247-.0309-.6475-.0434-.97-.05-.0579,0-.1158-.0082-.1757-.0082A.16.16,0,0,0,15.73,3.72,12.119,12.119,0,0,0,8.7523,5.9271a1.4664,1.4664,0,1,0,1.686,2.4,9.2107,9.2107,0,0,1,5.3933-1.6735c.2752.0021.55.0143.8171.0413.0829.0062.1635.0186.2464.031.2211.0291.4407.0579.6557.1035.0931.0166.19.0414.2794.0621.2151.0475.422.0972.629.1613a1.9551,1.9551,0,0,1,.1944.0663c.24.0764.4738.1593.697.2543a.7686.7686,0,0,1,.07.0332,9.31,9.31,0,0,1,3.5048,2.6254.0468.0468,0,0,0,.0143.0185,9.2562,9.2562,0,0,1,2.11,5.8859H22.6008l3.9183,5.869,3.9078-5.869h-2.445Z"/></svg>