<svg id="Layer_1" data-name="Layer 1" xmlns="http://www.w3.org/2000/svg" viewBox="0 0 39.8459 39.8459"><defs><style>.cls-1{fill:#30ad37;}.cls-2{fill:#fff;}</style></defs><title>icons</title><path class="cls-1" d="M19.8718,38.1279c-3.334-.0011-6.6683.023-10.002-.007a7.8432,7.8432,0,0,1-8.0377-7.928q-.1072-10.1695.0066-20.3408a7.8824,7.8824,0,0,1,8.0948-7.9c6.593-.0284,13.1862-.0163,19.7793-.0047a7.9805,7.9805,0,0,1,8.3316,8.25c.0466,3.5207.01,7.0425.01,10.5639,0,3.0343.0163,6.0688-.0052,9.103a7.9317,7.9317,0,0,1-8.2879,8.263C26.4649,38.1346,23.1683,38.129,19.8718,38.1279ZM14.9881,20.284a3.8045,3.8045,0,0,0,.7661.0615c1.0709-.1593,1.4537.258,1.3853,1.3523-.0886,1.4166-.022,2.843-.0221,4.2651,0,1.7135,0,3.427,0,5.18h4.435V20.35c.9314,0,1.7147.0486,2.4862-.0256.2808-.027.7354-.3184.7657-.537.1728-1.2464.2414-2.5073.3581-3.9168h-3.368c-.0242-.4716-.0545-.8-.0555-1.1293-.0041-1.3881.1573-1.5492,1.5434-1.5586.5832-.004,1.1664-.0007,1.7812-.0007V9.398c-1.3977,0-2.7433-.1072-4.0654.0237a3.925,3.925,0,0,0-3.8331,3.8348c-.1067.8369-.1161,1.6861-.1722,2.5642l-2.0046.1188Z"/><path class="cls-2" d="M14.9881,20.284V15.9395l2.0046-.1188c.056-.8781.0655-1.7274.1722-2.5642A3.925,3.925,0,0,1,20.998,9.4217c1.3221-.1309,2.6677-.0237,4.0654-.0237v3.784c-.6148,0-1.198-.0033-1.7812.0007-1.3861.0094-1.5475.1705-1.5434,1.5586.001.3289.0313.6577.0555,1.1293h3.368c-.1167,1.4095-.1853,2.67-.3581,3.9168-.03.2186-.4849.51-.7657.537-.7715.0741-1.5548.0256-2.4862.0256V31.1425h-4.435c0-1.7526,0-3.4661,0-5.18,0-1.4222-.0665-2.8485.0221-4.2651.0684-1.0943-.3144-1.5116-1.3853-1.3523A3.8045,3.8045,0,0,1,14.9881,20.284Z"/></svg>