<svg id="Layer_1" data-name="Layer 1" xmlns="http://www.w3.org/2000/svg" viewBox="0 0 35.5 35.5"><defs><style>.cls-1{fill:#3bac37;}</style></defs><title>icons</title><path class="cls-1" d="M34.1005,6.5566a4.5818,4.5818,0,0,0-4.6689-4.4733H6.0684A4.57,4.57,0,0,0,1.3995,6.5566V28.9434a4.5818,4.5818,0,0,0,4.6689,4.4733H29.4317a4.57,4.57,0,0,0,4.6689-4.4733ZM4.4238,5.4068a2.3134,2.3134,0,0,1,1.6635-.6479H29.4506c1.2853,0,2.3438.5853,2.3438,1.8184V16.6526H29.942L27.9383,14.73a1.1916,1.1916,0,0,0-1.6446,0,1.07,1.07,0,0,0-.2833.439l-1.4367,4.16-3.4213-6.5427a1.2036,1.2036,0,0,0-1.5689-.5015,1.1661,1.1661,0,0,0-.5671.5853l-3.4023,8.152L11.8713,8.4795a1.1842,1.1842,0,0,0-1.4365-.7733,1.0692,1.0692,0,0,0-.7183.5853l-4.3475,8.34H3.7622V6.9746a2.0224,2.0224,0,0,1,.6616-1.5678ZM31.2084,30.3856a2.944,2.944,0,0,1-1.7767.3971H6.0684a2.4388,2.4388,0,0,1-1.6635-.6479,2.12,2.12,0,0,1-.6805-1.5886v-9.657h2.344a1.14,1.14,0,0,0,1.04-.6271l3.3268-6.3754,3.8561,12.9179a1.156,1.156,0,0,0,1.0585.8153h.0566a1.1415,1.1415,0,0,0,1.0774-.7109l3.7238-8.9045,3.5159,6.7306a1.2037,1.2037,0,0,0,1.5689.5017,1.056,1.056,0,0,0,.5861-.6481l1.7388-4.9958,1.0019.9616a1.212,1.212,0,0,0,.8318.3345h2.3249v9.657a4.2378,4.2378,0,0,1-.5293,1.8184Zm0,0"/></svg>