<svg id="Layer_1" data-name="Layer 1" xmlns="http://www.w3.org/2000/svg" viewBox="0 0 35.5 35.5"><defs><style>.cls-1{fill:#3bac37;}</style></defs><title>icons</title><path class="cls-1" d="M17.7546,6.3863a1.5712,1.5712,0,0,1,1.5711,1.5712v8.1885h4.8364a1.5712,1.5712,0,0,1,0,3.1423h-6.42a1.5709,1.5709,0,0,1-1.571-1.5711c0-.04.0089-.0777.0118-.117V7.9575a1.5711,1.5711,0,0,1,1.5712-1.5712Z"/><path class="cls-1" d="M33.6848,21.9924a16.4687,16.4687,0,0,1-1.7976,4.2122l-.0173-.0105A1.5658,1.5658,0,1,1,29.2352,24.52a13.3725,13.3725,0,1,0-4.6827,4.6836,1.5657,1.5657,0,1,1,1.6681,2.6392l.01.0171a16.4859,16.4859,0,1,1,7.4542-9.8678Z"/></svg>