<svg id="Layer_1" data-name="Layer 1" xmlns="http://www.w3.org/2000/svg" viewBox="0 0 39.8459 39.8459"><defs><style>.cls-1{fill:#30ad37;}.cls-2{fill:#fff;}</style></defs><title>icons</title><path class="cls-1" d="M19.8942,38.133c-3.3715-.0015-6.7431.0172-10.1144-.0061a7.7836,7.7836,0,0,1-7.94-7.7715q-.1016-10.3381.0068-20.6779A7.7858,7.7858,0,0,1,9.631,1.965q10.2262-.0743,20.4534-.0041a7.89,7.89,0,0,1,7.9181,7.9673q.1127,10.1693.0013,20.3408a7.8637,7.8637,0,0,1-7.9952,7.8637c-1.6855.018-3.3714.002-5.0572.0018S21.58,38.1345,19.8942,38.133Z"/><path class="cls-2" d="M25.9982,16.1563c-5.3907.6815-8.8813,3.2114-8.892,9.1154a12.4461,12.4461,0,0,0-3.4079-.1321,13.1871,13.1871,0,0,0-3.0966,1.7,19.8171,19.8171,0,0,1,.4749-2.1313,1.0681,1.0681,0,0,0-.5009-1.3882,8.0186,8.0186,0,0,1-3.2475-4.5628A8.071,8.071,0,0,1,11.43,9.8029a10.1475,10.1475,0,0,1,12.9443,2.3055A7.305,7.305,0,0,1,25.9982,16.1563Zm-5.59-.0077a1.0484,1.0484,0,0,0,1.0977-.9981A1.0354,1.0354,0,0,0,20.4618,14.11a.9712.9712,0,0,0-1.0665.9885A.9863.9863,0,0,0,20.4079,16.1486Zm-7.1294-.0016a1.0237,1.0237,0,1,0-.0432-2.0429.96.96,0,0,0-1.0148,1.039A.9852.9852,0,0,0,13.2785,16.1469Z"/><path class="cls-2" d="M31.493,31.8335a6.7333,6.7333,0,0,1-.72-.3546,3.4989,3.4989,0,0,0-3.0176-.34,7.8853,7.8853,0,0,1-9.5848-5.56,6.7116,6.7116,0,0,1,2.9817-7.027C25.0915,15.77,30.9652,16.9,33.308,20.89a6.2939,6.2939,0,0,1-.98,7.8872c-.8046.7894-1.4161,1.5113-.78,2.6672a.41.41,0,0,1,.0207.2041A.8228.8228,0,0,1,31.493,31.8335ZM22.4754,21.3023a.8148.8148,0,1,0,.8752.78C23.3388,21.5407,23.0329,21.307,22.4754,21.3023Zm5.836.0032a.81.81,0,0,0,.0231,1.62.7042.7042,0,0,0,.8151-.79C29.1535,21.606,28.9033,21.3194,28.3114,21.3055Z"/></svg>