<svg id="Layer_1" data-name="Layer 1" xmlns="http://www.w3.org/2000/svg" viewBox="0 0 42.5 42.5"><defs><style>.cls-1{fill:#333;}</style></defs><title>icons</title><path class="cls-1" d="M21.2325,40.9879a19.638,19.638,0,1,1,19.635-19.6036A19.6492,19.6492,0,0,1,21.2325,40.9879Zm-.004-24.7569q-4.2248,0-8.45.0034a5.2063,5.2063,0,0,0-.9661.0781,4.9179,4.9179,0,0,0-4.0608,3.5938A4.8728,4.8728,0,0,0,9.23,25.1433a4.97,4.97,0,0,0,3.5267,1.3253q8.35.001,16.7,0c.224,0,.4489,0,.6717-.02a4.9252,4.9252,0,0,0,4.3873-3.1175,4.85,4.85,0,0,0-.85-5.33,4.9458,4.9458,0,0,0-3.937-1.7679C26.8948,16.2268,24.0617,16.2311,21.2285,16.231Zm18.3929,4.4528a18.399,18.399,0,0,0-4.3068-11.18,23.1117,23.1117,0,0,1-5.6636,2.27c.248,1.08.5018,2.1275.7212,3.1821a.3752.3752,0,0,0,.3891.3579,6.0874,6.0874,0,0,1,5.1258,4.6234c.0584.2477.1011.4991.1507.7468ZM7.1116,9.5408A18.392,18.392,0,0,0,2.84,20.6731a.8632.8632,0,0,0,.12.02c1.1051.0011,2.21-.0021,3.3152.0049.1731.0011.1774-.097.1941-.2182a5.6513,5.6513,0,0,1,.7308-2.1295,6.0094,6.0094,0,0,1,4.5222-3.0414c.213-.03.3207-.0817.3608-.3283.0944-.5807.233-1.1549.3694-1.728.1126-.4731.2475-.9408.377-1.4279A22.5209,22.5209,0,0,1,7.1116,9.5408ZM36.0388,22.0146a1.6082,1.6082,0,0,0-.0432.1735,5.6522,5.6522,0,0,1-.6962,2.0891,6.0028,6.0028,0,0,1-4.5538,3.1118c-.2263.0326-.3325.0978-.3712.3469-.0813.5239-.2045,1.0421-.3274,1.5586-.1184.4977-.2581.99-.392,1.4983a22.969,22.969,0,0,1,5.7369,2.3112A18.3806,18.3806,0,0,0,39.62,22.0146ZM12.7811,30.703c-.006-.0274-.0171-.0829-.03-.138-.2251-.9435-.4657-1.8838-.6654-2.8327a.3628.3628,0,0,0-.3746-.3427,6.0877,6.0877,0,0,1-5.1464-4.6627c-.0547-.2328-.0934-.4694-.14-.7067H2.8388A18.3306,18.3306,0,0,0,6.9943,33.0145c.9712-.4471,1.8887-.9152,2.8412-1.2953C10.7949,31.3364,11.7891,31.041,12.7811,30.703ZM20.56,30.98a27.1753,27.1753,0,0,0-6.2192.7729.3855.3855,0,0,0,.0109.0729,16.9431,16.9431,0,0,0,2.2439,4.48,7.7123,7.7123,0,0,0,2.48,2.3047,4.2706,4.2706,0,0,0,1.4848.5166Zm1.3347,8.1471c.0693-.01.11-.0143.1491-.0219.057-.0109.1139-.0227.17-.0364a5.6988,5.6988,0,0,0,2.7612-1.7013,13.65,13.65,0,0,0,2.6874-4.3648c.17-.4112.3193-.8306.4885-1.2733a49.8226,49.8226,0,0,0-6.2564-.78ZM20.5612,3.5686c-.12.0236-.2172.0385-.3122.0619a5.8835,5.8835,0,0,0-2.9636,1.9161,14.8022,14.8022,0,0,0-2.74,4.7881c-.0631.1666-.12.3355-.1852.5193a32.3054,32.3054,0,0,0,6.2008.7608Zm7.5055,7.2773a.3805.3805,0,0,0-.0006-.082,15.2428,15.2428,0,0,0-2.8872-5.2125,6.164,6.164,0,0,0-2.4871-1.7748c-.2515-.0912-.5158-.1472-.7908-.2239v8.0694A51.0205,51.0205,0,0,0,28.0667,10.8459Zm-4.43,28.7531A18.4326,18.4326,0,0,0,34.668,33.9272a16.402,16.402,0,0,0-5.3951-1.9684c-.029.0668-.0508.1106-.0674.1562a19.477,19.477,0,0,1-1.6642,3.5276A10.0279,10.0279,0,0,1,23.7,39.52C23.6812,39.53,23.67,39.5566,23.6369,39.599ZM13.1906,31.9856A32.7756,32.7756,0,0,0,7.76,33.8662a18.1219,18.1219,0,0,0,11.0377,5.7029C15.8165,37.8783,14.3843,35.04,13.1906,31.9856ZM29.233,10.6163a16.44,16.44,0,0,0,5.3476-1.9379,18.5077,18.5077,0,0,0-10.9837-5.583C26.6063,4.7917,28.0373,7.5931,29.233,10.6163Zm-15.9911-.0258c.0289-.0651.0478-.102.0621-.1406a19.2235,19.2235,0,0,1,1.6124-3.39,10.0255,10.0255,0,0,1,3.8424-3.88c.0193-.01.03-.0363.0641-.0791A18.46,18.46,0,0,0,7.83,8.7316,33.4462,33.4462,0,0,0,13.2419,10.5905Zm8.6616,2.2277v2.4177h7.343l-.7335-3.1893A35.2567,35.2567,0,0,1,21.9035,12.8182Zm-7.9694-.7333-.718,3.1451h7.3384V12.8224A34.84,34.84,0,0,1,13.9341,12.0848Zm7.96,17.6629a34.6821,34.6821,0,0,1,6.6542.7776l.6933-3.0567H21.8944Zm-1.3342-2.28H13.2176l.6834,3.02A34.639,34.639,0,0,1,20.56,29.74Z"/><path class="cls-1" d="M21.1675,20.1359c-.3765,1.3193-.7359,2.5618-1.0817,3.808-.0577.2078-.1389.2919-.3676.2853-.5855-.0168-.5869-.0041-.7545-.5647q-.6521-2.1808-1.3023-4.3622c-.0232-.0777-.0405-.1571-.0678-.2642.2934,0,.5669-.0121.8378.0092.0618.0049.1452.1167.1669.1939.3007,1.07.5921,2.1423.8865,3.2139a.689.689,0,0,0,.1293.2738q.2827-.9842.5653-1.9684c.1463-.51.2984-1.0191.4341-1.5322.04-.15.1062-.2029.2574-.1942a5.2426,5.2426,0,0,0,.5976,0c.16-.0092.2287.047.2732.2072.3043,1.0948.6209,2.1861.934,3.2784.0215.0751.0466.1491.0912.2908.18-.6542.3431-1.2433.5046-1.8328.1556-.5679.3175-1.1342.46-1.7054a.2636.2636,0,0,1,.3243-.24c.2217.0172.4457.004.7085.004-.0852.2877-.1614.5456-.2381.8034-.4091,1.375-.8216,2.7491-1.2239,4.1261-.0542.1857-.1227.2678-.3358.2626-.6207-.0151-.6187-.0042-.7837-.5876q-.4571-1.6159-.92-3.23C21.2435,20.3426,21.2165,20.2761,21.1675,20.1359Z"/><path class="cls-1" d="M13.1482,20.2118q-.2593.9028-.5184,1.8057c-.1892.6622-.3806,1.3237-.563,1.9878-.0431.1569-.104.2281-.2861.2269-.6488-.0045-.65.0045-.8375-.6218q-.6485-2.17-1.2943-4.34c-.0188-.063-.0322-.1276-.0571-.2275.2958,0,.5756-.0121.8527.01.059.0046.1359.1244.1582.2041.3132,1.1184.6183,2.2391.9257,3.3591.01.0382.0252.0752.0576.1708.043-.1286.0721-.2056.0947-.2845.3082-1.0765.62-2.152.9186-3.2312.0489-.1767.1206-.2479.3051-.232.254.0219.5736-.0663.7464.0579.1609.1156.1707.4462.2394.6844.2847.9878.5664,1.9765.8634,3.0143.0353-.0981.06-.1536.0754-.2114.3008-1.096.6049-2.1912.8966-3.29.0511-.1924.1268-.2779.3369-.2575.2209.0214.4455.0048.7034.0048-.1383.4644-.2673.8982-.3965,1.3319-.36,1.2084-.7241,2.4157-1.0759,3.6265a.2659.2659,0,0,1-.3079.2314c-.6362-.0049-.6346.0019-.8106-.617q-.4831-1.6991-.97-3.3972Z"/><path class="cls-1" d="M29.1482,20.2118q-.2593.9028-.5184,1.8057c-.1892.6622-.3806,1.3237-.563,1.9878-.0431.1569-.104.2281-.2861.2269-.6488-.0045-.65.0045-.8375-.6218q-.6485-2.17-1.2943-4.34c-.0188-.063-.0322-.1276-.0571-.2275.2958,0,.5756-.0121.8527.01.059.0046.1359.1244.1582.2041.3132,1.1184.6183,2.2391.9257,3.3591.01.0382.0252.0752.0576.1708.043-.1286.0721-.2056.0947-.2845.3082-1.0765.62-2.152.9186-3.2312.0489-.1767.1206-.2479.3051-.232.254.0219.5736-.0663.7464.0579.1609.1156.1707.4462.2394.6844.2847.9878.5664,1.9765.8634,3.0143.0353-.0981.06-.1536.0754-.2114.3008-1.096.6049-2.1912.8966-3.29.0511-.1924.1268-.2779.3369-.2575.2209.0214.4455.0048.7034.0048-.1383.4644-.2673.8982-.3965,1.3319-.36,1.2084-.7241,2.4157-1.0759,3.6265a.2659.2659,0,0,1-.3079.2314c-.6362-.0049-.6346.0019-.8106-.617q-.4831-1.6991-.97-3.3972Z"/></svg>