<svg id="Layer_1" data-name="Layer 1" xmlns="http://www.w3.org/2000/svg" viewBox="0 0 146 39.0743"><defs><style>.cls-1{fill:#33ad37;}.cls-2{fill:#040000;}</style></defs><title>Untitled-2</title><path class="cls-1" d="M28.6105,10.0255c-.0246-.0009-.0481-.0028-.0726-.0028A19.56,19.56,0,0,0,9,29.56c0,.5277.0269,1.053.07,1.5754.0056.0607.01.12.0128.1794q.073.8049.21,1.5933l.0022.0114A19.567,19.567,0,0,0,13.45,41.9336l-.0117.0238c.1543.1856.3119.3684.4745.5483l.0246.0294.2035.2286c.2917.3161.5941.6216.9055.92l.0028-.0068a19.571,19.571,0,0,0,11.5953,5.3276c.0855.0081.166.0129.2515.019.2236.02.4533.0389.6791.0489.3209.0156.6422.0248.9614.0248h.0117c.3186,0,.6366-.0092.95-.0248.2342-.01.4645-.0291.697-.05.0766-.005.1593-.01.237-.0179a19.5782,19.5782,0,0,0,11.5942-5.3248l.0022.0039c.3169-.3.6215-.6084.9172-.9273l.1811-.2059.0062-.005c.1727-.194.34-.3893.5047-.5878l-.0134-.0218a19.5424,19.5424,0,0,0,4.1579-9.0163V32.91q.1392-.7906.2107-1.5958c.0045-.06.0089-.1188.0145-.1794.0425-.5243.067-1.0477.067-1.5754A19.5526,19.5526,0,0,0,28.6105,10.0255ZM42.47,39.8468l-.02-.0248a17.2664,17.2664,0,0,1-1.5142,1.78.2243.2243,0,0,0,.019.0288,17.3089,17.3089,0,0,1-24.83,0l.014-.0288a17.5539,17.5539,0,0,1-1.5147-1.78.2969.2969,0,0,1-.0179.0248,17.3188,17.3188,0,1,1,27.8633,0Z" transform="translate(-9 -10.0227)"/><path class="cls-1" d="M45.4,34.8714H42.3012V22.8879a1.1089,1.1089,0,0,0-2.2179,0v1.237a7.6077,7.6077,0,0,0-8.677-1.6467,1.1031,1.1031,0,0,0-1.0285-.6981H22.3224a7.6275,7.6275,0,0,0-5.4385,2.2749V22.8879A1.1056,1.1056,0,0,0,15.7767,21.78h-3.655a1.108,1.108,0,0,0,0,2.2159h2.546V34.8714h-2.754a1.1085,1.1085,0,0,0,0,2.217H45.4a1.1085,1.1085,0,0,0,0-2.217ZM40.0219,29.432a5.4385,5.4385,0,1,1-5.4385-5.436A5.4453,5.4453,0,0,1,40.0219,29.432Zm-23.138,5.4394V29.4256a5.4416,5.4416,0,0,1,5.4385-5.43h6.8795a7.6376,7.6376,0,0,0,0,10.8754Zm23.1995-.1288v.1288H39.961A1.7266,1.7266,0,0,0,40.0833,34.7425Z" transform="translate(-9 -10.0227)"/><path class="cls-2" d="M58.9907,22.2523q-1.1766-1.0184-2.9022-2.3532l.706-.7844q.5477.3935,1.49,1.0981,1.0184.7847,1.49,1.1766ZM57.7356,32.371l-1.1766-.3922q1.4119-4.7835,1.961-6.9811c.1041.0525.2867.1309.5491.2353q.3124.1582.4706.2353Q58.8338,27.8215,57.7356,32.371Zm1.8825-15.1387q-.6288-.6272-1.8825-1.7257-.6288-.5477-.9413-.8628l.706-.706a6.745,6.745,0,0,0,.5491.4706q1.5681,1.2553,2.3532,1.961Zm1.255,2.6669a6.6332,6.6332,0,0,0-.706-.7844,16.7343,16.7343,0,0,0,3.922-5.6476l1.02.2353q-.4706.9413-.9413,1.8041H74.6785v.9413H63.54A25.6026,25.6026,0,0,1,60.8732,19.8992Zm.7844,9.4911.6275-4.9417h-1.961v-.9413h2.0394l.6275-4.9417H73.11q0,2.5885-.0784,4.9417h2.0394v.9413H72.9528q0,.7847-.0784,2.1963V28.449h1.5688V29.39H72.7959q-.0791,2.8238-3.0591,2.8238H67.3052a11.9209,11.9209,0,0,0-.2353-1.1766q1.1766.0771,2.4316.0784,2.195.0771,2.2747-1.7257Zm10.1186-.9413q.1562-2.51.1569-4H63.3048l-.4706,4Zm-7.8439-8.942-.4706,4h8.4714q.0771-1.5685.0784-4ZM66.05,25.939l.6275-.6275a18.2666,18.2666,0,0,1,2.2747,1.8041l-.6275.706A15.035,15.035,0,0,0,66.05,25.939Zm.2353-5.0985.6275-.6275q1.0184.706,2.3532,1.8041l-.706.706A11.8634,11.8634,0,0,0,66.2855,20.84Z" transform="translate(-9 -10.0227)"/><path class="cls-2" d="M76.6394,24.6839a1.9259,1.9259,0,0,0-.4706-.6275,2.5172,2.5172,0,0,0-.2353-.3138A33.9956,33.9956,0,0,0,80.4829,13.624l1.1766.3138q-.1582.4706-.4706,1.255-.3935,1.2553-.6275,1.8825h5.3339v1.0981q-1.02,9.4127-8.6283,14.119a2.23,2.23,0,0,0-.3922-.4706,3.017,3.017,0,0,0-.3922-.5491q7.3719-4.157,8.3145-13.0993H80.0908q-.6288,1.4119-1.3335,2.9022a37.06,37.06,0,0,1,3.4513,2.5885l-.7844.8628q-.1582-.1566-.5491-.4706-1.6472-1.4119-2.5885-2.1179A31.6091,31.6091,0,0,1,76.6394,24.6839ZM88.3268,13.7025H89.425v6.7458l.6275-.6275a2.9439,2.9439,0,0,0,.5491.3922q2.9009,1.9612,4.471,3.216l-.7844.9413q-.3144-.2353-.8628-.706-2.5885-1.96-4-2.9807V32.371H88.3268Z" transform="translate(-9 -10.0227)"/><path class="cls-2" d="M96.3276,30.0962l-.2353-1.02q.3915-.0771,1.1766-.2353.9413-.2353,1.49-.3138v-6.04H96.5629v-.9413h2.1963V16.4478h-2.51v-.9413h5.8829v.9413H99.7005v5.0985h2.1963v.9413H99.7005v5.8045c.261-.0514.6532-.1569,1.1766-.3138a10.0987,10.0987,0,0,0,1.3335-.3138,5.3336,5.3336,0,0,0,.0784,1.02Q100.0129,29.155,96.3276,30.0962Zm6.9811-5.9614h3.53l.6275-2.1963H102.76v-.9413H115.153v.9413h-6.5889l-.706,2.1963h6.51v6.1182q.0771,2.0391-1.8041,1.961h-1.5688a3.0655,3.0655,0,0,0-.2353-1.02c.522.0514,1.02.0784,1.49.0784q1.1766.0771,1.0981-1.0981V25.0761h-2.4316v5.726h-.9413v-5.726h-2.3532v6.1967h-1.02V25.0761H104.25V32.371h-.9413Zm.3138-5.2554v-4h1.02v3.0591h3.6866V13.624h.9413v4.3141h3.6866V14.8791h1.02v4Z" transform="translate(-9 -10.0227)"/><path class="cls-2" d="M117.663,32.371l-.2353-.4706a2.65,2.65,0,0,0-.3922-.6275,22.0919,22.0919,0,0,0,8.2361-2.6669q-1.3348-.6272-4.3141-1.961a10.4542,10.4542,0,0,0-1.255-.5491q.3915-.5477,1.255-1.8825.4706-.7831.706-1.1766h-5.4123v-1.02h6.04q.2353-.3919.6275-1.1766.7831-1.5685,1.255-2.3532l1.02.3922a5.27,5.27,0,0,0-.3922.7844q-.3935.7847-1.3335,2.3532h11.7659v1.02h-4.0788a12.1461,12.1461,0,0,1-3.7651,5.3339q.706.314,1.961.8628,1.489.6288,4.471,1.961l-.6275,1.02q-.6288-.314-1.8825-.8628-3.2173-1.4906-4.9417-2.1963A26.9233,26.9233,0,0,1,117.663,32.371Zm6.9811-18.3547.9413-.4706q.3124.3935.8628,1.255.5477.8642.7844,1.255l-.8628.4706h7.8439v3.2944h-1.0981V17.546H118.4474v2.2747h-1.0981V16.5263h8.7852q-.2353-.3919-.706-1.255Q124.8788,14.4087,124.6441,14.0162Zm-3.4513,11.6874q.9413.3935,2.9807,1.255,1.4119.6288,2.1179.9413a11.4155,11.4155,0,0,0,3.6866-4.8632H122.84Q122.055,24.4486,121.1928,25.7036Z" transform="translate(-9 -10.0227)"/><path class="cls-2" d="M141.3516,25.7821h5.2554V23.1152h-7.06q.0771,5.9616-2.4316,9.1774a4.5811,4.5811,0,0,0-.6275-.4706,2.4357,2.4357,0,0,1-.3138-.2353q2.43-2.8238,2.2747-9.2558V14.4869h15.06V19.35H139.5475v2.8238h7.06V19.9776h1.0981v2.1963H155v.9413h-7.2948v2.6669h5.4123V32.371h-1.0981V31.1944h-9.648V32.371h-1.02Zm-1.8041-10.3539v2.9807h12.864V15.4281Zm2.8238,11.3737v3.4513h9.648V26.8018Z" transform="translate(-9 -10.0227)"/><path class="cls-2" d="M63.4683,47.7527h-.8444l-2.9756-3.6189H57.0346v3.6189h-.6032V39.7509h3.6993q2.5728.081,2.6941,2.2116,0,2.0507-2.4528,2.1714Zm-6.4336-7.4791v3.3375H59.93q2.292.04,2.2518-1.6888,0-1.6486-2.2518-1.6486Z" transform="translate(-9 -10.0227)"/><path class="cls-2" d="M65.1571,47.31h5.348v.4423H64.5539V39.7509h5.75v.5227H65.1571V43.37h4.8654v.5227H65.1571Z" transform="translate(-9 -10.0227)"/><path class="cls-2" d="M78.0244,47.7527l-1.0857-2.5735h-4.021l-1.1259,2.5735h-.6434l3.4179-8.0421H75.21l3.4983,8.0421Zm-4.9057-3.0962h3.5787l-1.7693-4.2623h-.04Z" transform="translate(-9 -10.0227)"/><path class="cls-2" d="M79.5122,47.7929V39.7509h.6032v7.56h4.4633v.4825Z" transform="translate(-9 -10.0227)"/><path class="cls-2" d="M91.6557,40.2736H88.7605v7.4791h-.6032V40.2736H85.2622v-.5227h6.3934Z" transform="translate(-9 -10.0227)"/><path class="cls-2" d="M96.28,47.8734q-3.7-.2017-3.86-4.021.2007-4.02,3.9406-4.2221,3.5379.2413,3.82,4.1819Q100.0191,47.7125,96.28,47.8734Zm0-7.68q-3.0158.2815-3.2168,3.6189.16,3.3777,3.1766,3.5787,3.0959-.16,3.257-3.5787Q99.3355,40.4345,96.28,40.1932Z" transform="translate(-9 -10.0227)"/><path class="cls-2" d="M108.6646,47.7527H107.82l-2.9756-3.6189H102.231v3.6189h-.6032V39.7509h3.6993q2.5728.081,2.6941,2.2116,0,2.0507-2.4528,2.1714Zm-6.4336-7.4791v3.3375h2.8951q2.292.04,2.2518-1.6888,0-1.6486-2.2518-1.6486Z" transform="translate(-9 -10.0227)"/><path class="cls-2" d="M115.7014,47.7527l-1.0857-2.5735h-4.021l-1.1259,2.5735h-.6434l3.4179-8.0421h.6434l3.4983,8.0421Zm-4.9057-3.0962h3.5787l-1.7693-4.2623h-.04Z" transform="translate(-9 -10.0227)"/><path class="cls-2" d="M123.3816,45.0586l.6836.2011a3.2612,3.2612,0,0,1-3.4983,2.6137q-3.4587-.2413-3.6189-4.021.2007-4.02,3.74-4.2221a3.3537,3.3537,0,0,1,3.2168,2.3322l-.6836.1608a2.7112,2.7112,0,0,0-2.6137-1.93q-2.815.2413-3.0158,3.5787.16,3.3777,2.9354,3.6189A2.6717,2.6717,0,0,0,123.3816,45.0586Z" transform="translate(-9 -10.0227)"/><path class="cls-2" d="M131.5443,45.0586l.6836.2011a3.2612,3.2612,0,0,1-3.4983,2.6137q-3.4587-.2413-3.6189-4.021.2007-4.02,3.74-4.2221a3.3537,3.3537,0,0,1,3.2168,2.3322l-.6836.1608a2.7112,2.7112,0,0,0-2.6137-1.93q-2.815.2413-3.0158,3.5787.16,3.3777,2.9354,3.6189A2.6717,2.6717,0,0,0,131.5443,45.0586Z" transform="translate(-9 -10.0227)"/><path class="cls-2" d="M134.2384,47.31h5.348v.4423h-5.9511V39.7509h5.75v.5227h-5.1469V43.37h4.8654v.5227h-4.8654Z" transform="translate(-9 -10.0227)"/><path class="cls-2" d="M143.929,40.1932q-2.0507.081-2.2518,1.5682-.081,1.2063,2.4528,1.6084,3.1364.4021,3.0158,2.3322-.2017,2.0507-2.9756,2.1714-2.8951.08-3.4581-2.4126l.6836-.2413a2.404,2.404,0,0,0,2.7343,2.1714q2.2109-.08,2.3724-1.7693.1206-1.3665-2.5735-1.729-2.9762-.4423-2.8951-2.1311.1206-2.0507,2.8549-2.1311,2.6134.04,3.056,2.1311l-.6836.2011A2.1033,2.1033,0,0,0,143.929,40.1932Z" transform="translate(-9 -10.0227)"/><path class="cls-2" d="M151.4082,40.1932q-2.0507.081-2.2518,1.5682-.081,1.2063,2.4528,1.6084,3.1364.4021,3.0158,2.3322-.2017,2.0507-2.9756,2.1714-2.8951.08-3.4581-2.4126l.6836-.2413a2.404,2.404,0,0,0,2.7343,2.1714q2.2109-.08,2.3724-1.7693.1206-1.3665-2.5735-1.729-2.9762-.4423-2.8951-2.1311.1206-2.0507,2.8549-2.1311,2.6134.04,3.056,2.1311l-.6836.2011A2.1033,2.1033,0,0,0,151.4082,40.1932Z" transform="translate(-9 -10.0227)"/></svg>